<?xml version="1.0" encoding="UTF-8" standalone="no"?>
<!-- Created with Inkscape (http://www.inkscape.org/) -->

<svg
   width="61.149891mm"
   height="60.018013mm"
   viewBox="0 0 61.149891 60.018013"
   version="1.1"
   id="svg5"
   xmlns="http://www.w3.org/2000/svg"
   xmlns:svg="http://www.w3.org/2000/svg">
  <defs
     id="defs2" />
  <g
     id="layer1"
     transform="translate(-56.604154,-77.856664)">
    <ellipse
       style="fill:#000000;stroke-width:0.560001"
       id="path234"
       ry="29.92164"
       rx="30.660448"
       cy="131.17758"
       cx="45.029327"
       transform="rotate(-20)" />
    <ellipse
       style="fill:#ffffff;fill-opacity:0.950178;stroke-width:0.560001"
       id="path391"
       ry="27.797575"
       rx="28.628733"
       cy="131.26994"
       cx="44.844635"
       transform="rotate(-20)" />
    <ellipse
       style="fill:#316fff;fill-opacity:0.448399;stroke-width:0.560001"
       id="path391-0"
       ry="27.797575"
       rx="28.628733"
       cy="131.15518"
       cx="44.898727"
       transform="rotate(-20)" />
    <path
       style="fill:#000000;fill-opacity:1;stroke-width:0.560001"
       d="m 72.224698,133.15231 3.306181,0.97852 c 0,0 5.415011,-6.69693 16.315263,-10.59782 16.704658,-5.97805 27.726138,-4.87493 23.216538,-8.11629 -2.58223,-1.85602 -16.817827,1.18883 -24.459534,4.31737 -8.715961,3.64408 -15.43745,6.64768 -18.378448,13.41822 z"
       id="path447" />
    <path
       style="fill:#000000;fill-opacity:1;stroke-width:0.560001"
       d="m 102.75386,82.684422 -3.306182,-0.978525 c 0,0 -5.415007,6.696926 -16.315264,10.59782 -16.704653,5.978051 -27.726128,4.87493 -23.216526,8.116283 2.582235,1.85602 16.817806,-1.188814 24.459534,-4.317365 8.715959,-3.644077 15.437436,-6.647678 18.378438,-13.418213 z"
       id="path447-1" />
    <path
       style="fill:#000000;fill-opacity:1;stroke-width:0.560001"
       d="m 90.717547,136.24293 4.592668,-1.10627 c 0,0 -13.70171,-12.6183 -17.60259,-23.51857 -5.978056,-16.704669 0.09034,-31.068804 -2.469809,-29.681409 -5.234215,2.836519 -6.051029,21.940679 -2.922471,29.582389 3.644078,8.71596 11.63167,21.78286 18.402202,24.72386 z"
       id="path447-1-0" />
    <path
       style="fill:#000000;fill-opacity:1;stroke-width:0.560001"
       d="m 82.392981,80.741651 -4.103544,0.82998 c 0,0 13.394132,13.123347 17.29501,24.023619 5.978053,16.70468 0.330654,32.30018 4.757703,28.94696 3.34726,-2.53533 4.18905,-21.65609 1.06051,-29.29781 C 97.758584,96.528444 89.163511,83.682648 82.392981,80.741651 Z"
       id="path447-1-0-4" />
    <rect
       style="fill:#000000;fill-opacity:1;stroke-width:0.560001"
       id="rect2845"
       width="59.555275"
       height="4.5711284"
       x="15.446448"
       y="129.49271"
       transform="rotate(-20)" />
    <rect
       style="fill:#000000;fill-opacity:1;stroke-width:0.560001"
       id="rect2847"
       width="2.8732808"
       height="56.943203"
       x="43.3377"
       y="102.60419"
       transform="rotate(-20)" />
  </g>
</svg>
